# xmcd CD database file
#
# Track frame offsets:
#	150
#	10805
#	21500
#	33142
#	44647
#	55102
#	64228
#	74832
#	85764
#	98446
#	108970
#	122977
#	134509
#	146120
#	157080
#
# Disc length: 2241 seconds
#
# Revision: 0
# Processed by: cddbd v1.5.2PL0 Copyright (c) Steve Scherf et al.
# Submitted via: CDex 1.51
#
DISCID=d908bf0f
DTITLE=Patsy Cline - Collectors Edition Disc 1
DYEAR=1900
DGENRE=Country
TTITLE0=Crazy
TTITLE1=Honky Tonk Merry-Go-Round
TTITLE2=I've Loved and Lost Again
TTITLE3=Never No More
TTITLE4=I Don't Wanna
TTITLE5=I Love You Honey
TTITLE6=Stop, Look and Listen
TTITLE7=I Can See An Angel
TTITLE8=A Poor Man's Roses
TTITLE9=Three Cigarettes In An Ashtray
TTITLE10=A Church, A Courtroom and Then Goodbye
TTITLE11=Just Out Of Reach
TTITLE12=Let The Teardrops Fall
TTITLE13=Don't You Leave Me
TTITLE14=Dear God
EXTD=
EXTT0=
EXTT1=
EXTT2=
EXTT3=
EXTT4=
EXTT5=
EXTT6=
EXTT7=
EXTT8=
EXTT9=
EXTT10=
EXTT11=
EXTT12=
EXTT13=
EXTT14=
PLAYORDER=
